<?xml version="1.0" standalone="no"?>
<!DOCTYPE svg PUBLIC "-//W3C//DTD SVG 20010904//EN"
 "http://www.w3.org/TR/2001/REC-SVG-20010904/DTD/svg10.dtd">
<svg version="1.0" xmlns="http://www.w3.org/2000/svg"
 width="73.000000pt" height="73.000000pt" viewBox="0 0 73.000000 73.000000"
 preserveAspectRatio="xMidYMid meet">
<metadata>
Created by potrace 1.11, written by Peter Selinger 2001-2013
</metadata>
<g transform="translate(0.000000,73.000000) scale(0.100000,-0.100000)"
fill="#000000" stroke="none">
<path d="M405 706 c-35 -16 -352 -333 -374 -374 -20 -37 -21 -82 -3 -110 l15
-23 15 22 c8 11 115 122 238 246 123 123 224 226 224 228 0 3 -43 16 -70 21
-8 1 -28 -3 -45 -10z"/>
<path d="M299 429 c-218 -219 -229 -232 -229 -268 0 -53 39 -92 89 -89 31 2
56 23 224 192 268 271 267 269 267 311 0 47 -39 85 -87 85 -32 0 -53 -18 -264
-231z m291 176 c6 -4 8 -11 4 -16 -3 -5 -9 -7 -13 -5 -14 9 -34 -11 -25 -25
25 -40 4 -69 -47 -64 -29 3 -39 1 -39 -10 0 -7 4 -16 10 -20 15 -9 -4 -47 -28
-56 -12 -5 -24 -4 -27 1 -4 6 -13 10 -21 10 -11 0 -13 -9 -8 -40 6 -36 4 -40
-20 -51 -19 -9 -30 -9 -37 -2 -22 22 -38 4 -26 -27 8 -21 8 -32 -2 -44 -13
-16 -52 -18 -62 -3 -15 21 -27 -4 -18 -36 8 -27 6 -35 -12 -49 -15 -13 -26
-15 -39 -8 -28 15 -43 12 -36 -6 9 -23 -3 -37 -20 -23 -36 30 -2 73 51 63 34
-6 49 6 25 21 -14 8 -3 46 17 62 9 7 23 9 37 4 34 -13 49 -3 32 21 -13 18 -13
24 1 44 14 22 43 27 59 11 17 -17 25 -4 19 31 -8 50 9 66 60 56 35 -6 37 -6
26 14 -6 12 -9 33 -5 48 6 24 10 26 44 20 43 -7 53 0 40 25 -15 27 4 69 30 64
11 -2 25 -7 30 -10z"/>
<path d="M657 508 c-25 -38 -445 -457 -451 -451 -3 4 -6 -1 -6 -9 0 -17 42
-35 75 -32 34 3 65 16 65 27 0 6 2 8 5 5 3 -2 74 66 159 151 158 161 191 196
191 209 0 4 3 12 7 17 11 18 -7 105 -22 105 -4 0 -14 -10 -23 -22z"/>
</g>
</svg>
